HIERARCHY
ROOT Hips
{
	OFFSET 0.00000 0.00000 0.00000
	CHANNELS 6 Xposition Yposition Zposition Zrotation Yrotation Xrotation 
	JOINT LHipJoint
	{
		OFFSET 0 0 0
		CHANNELS 3 Zrotation Yrotation Xrotation
		JOINT LeftHip
		{
			OFFSET 1.62964 -1.40469 0.78906
			CHANNELS 3 Zrotation Yrotation Xrotation
			JOINT LeftKnee
			{
				OFFSET 2.29640 -6.30932 0.00000
				CHANNELS 3 Zrotation Yrotation Xrotation
				JOINT LeftAnkle
				{
					OFFSET 2.29451 -6.30412 0.00000
					CHANNELS 3 Zrotation Yrotation Xrotation
					JOINT LeftToe
					{
						OFFSET 0.03611 -0.09921 1.56387
						CHANNELS 3 Zrotation Yrotation Xrotation
						End Site
						{
							OFFSET 0.00000 -0.00000 0.80291
						}
					}
				}
			}
		}
	}
	JOINT RHipJoint
	{
		OFFSET 0 0 0
		CHANNELS 3 Zrotation Yrotation Xrotation
		JOINT RightHip
		{
			OFFSET -1.73712 -1.40469 0.78906
			CHANNELS 3 Zrotation Yrotation Xrotation
			JOINT RightKnee
			{
				OFFSET -2.28137 -6.26801 0.00000
				CHANNELS 3 Zrotation Yrotation Xrotation
				JOINT RightAnkle
				{
					OFFSET -2.28681 -6.28298 0.00000
					CHANNELS 3 Zrotation Yrotation Xrotation
					JOINT RightToe
					{
						OFFSET -0.15927 -0.43759 1.61103
						CHANNELS 3 Zrotation Yrotation Xrotation
						End Site
						{
							OFFSET -0.00000 -0.00000 0.84630
						}
					}
				}
			}
		}
	}
	JOINT lowerback
	{
		OFFSET 0 0 0
		CHANNELS 3 Zrotation Yrotation Xrotation
		JOINT Chest
		{
			OFFSET -0.04227 2.04338 -0.00225
			CHANNELS 3 Zrotation Yrotation Xrotation
			JOINT Chest2
			{
				OFFSET -0.02148 2.04482 -0.04273
				CHANNELS 3 Zrotation Yrotation Xrotation
				JOINT lowerneck
				{
					OFFSET 0 0 0
					CHANNELS 3 Zrotation Yrotation Xrotation
					JOINT Neck
					{
						OFFSET 0.09180 1.44629 0.19359
						CHANNELS 3 Zrotation Yrotation Xrotation
						JOINT Head
						{
							OFFSET 0.00887 1.40645 0.14750
							CHANNELS 3 Zrotation Yrotation Xrotation
							End Site
							{
								OFFSET -0.00669 1.50671 0.03707
							}
						}
					}
				}
				JOINT LeftCollar
				{
					OFFSET 0 0 0
					CHANNELS 3 Zrotation Yrotation Xrotation
					JOINT LeftShoulder
					{
						OFFSET 2.17674 1.86763 -0.06520
CHANNELS 3 Zrotation Xrotation Yrotation
						JOINT LeftElbow
						{
OFFSET 0 -4.657760 0.000000
CHANNELS 3 Zrotation Xrotation Yrotation
							JOINT LeftWrist
							{
OFFSET 0 -3.555390 0.000000
CHANNELS 3 Zrotation Xrotation Yrotation
								JOINT lhand
								{
									OFFSET 0 0 0
CHANNELS 3 Zrotation Xrotation Yrotation
									JOINT LFingers
									{
OFFSET 0 -0.707260 0.000000
CHANNELS 3 Zrotation Xrotation Yrotation
										End Site
										{
OFFSET 0 -0.570220 0.000000
										}
									}
								}
								JOINT LThumb
								{
OFFSET 0 0.000000 0.000000
CHANNELS 3 Zrotation Xrotation Yrotation
									End Site
									{
OFFSET 0 -0.578920 0.578920
									}
								}
							}
						}
					}
				}
				JOINT RightCollar
				{
					OFFSET 0 0 0
					CHANNELS 3 Zrotation Yrotation Xrotation
					JOINT RightShoulder
					{
						OFFSET -2.80694 1.55459 -0.32496
CHANNELS 3 Zrotation Xrotation Yrotation
						JOINT RightElbow
						{
OFFSET 0 -4.719250 -0.000000
CHANNELS 3 Zrotation Xrotation Yrotation
							JOINT RightWrist
							{
OFFSET 0 -3.569900 0.000000
CHANNELS 3 Zrotation Xrotation Yrotation
								JOINT rhand
								{
									OFFSET 0 0 0
CHANNELS 3 Zrotation Xrotation Yrotation
									JOINT RFingers
									{
OFFSET 0 -0.507760 0.000000
CHANNELS 3 Zrotation Xrotation Yrotation
										End Site
										{
OFFSET 0 -0.409370 0.000000
										}
									}
								}
								JOINT RThumb
								{
OFFSET 0 0.000000 0.000000
CHANNELS 3 Zrotation Xrotation Yrotation
									End Site
									{
OFFSET 0 -0.415620 0.415620
									}
								}
							}
						}
					}
				}
			}
		}
	}
}
MOTION
Frames: 11
Frame Time: 0.008333333333333333
16.460500 17.967400 20.563900 177.672000 -2.144100 -153.592000 0.000000 0.000000 0.000000 -20.851300 -16.473900 -19.070500 0.228400 3.075900 8.490200 0.038600 -6.649100 -5.571000 0.431300 -4.214300 -11.680400 0.000000 0.000000 0.000000 19.661000 12.586600 -19.000600 -0.115600 -2.191900 6.036300 -1.257200 3.572100 -20.316900 -0.817200 5.768300 -16.113600 -7.185300 -2.552500 -30.025600 -0.009300 -1.632400 -1.534800 3.165800 -1.483400 14.213700 -0.488300 -1.414900 -5.312100 3.793900 -2.383000 8.553900 1.221600 -1.104300 3.790300 0.000000 0.000000 0.000000 5.470400 1.205800 -20.854100 12.364400 -20.348900 2.227400 21.362500 -1.442400 11.802400 0.000000 0.000000 0.000000 -7.125000 0.000000 0.000000 -4.057700 17.353400 -2.669500 0.000000 0.000000 0.000000 1.098800 7.354300 8.566300 -18.962000 -29.371500 -5.012200 -10.060700 4.415500 54.498700 0.000000 0.000000 0.000000 7.125000 0.000000 -0.000000 73.220400 75.366400 -58.256000
16.459376 17.968697 20.563468 177.655569 -2.148337 -153.589406 0.000000 0.000000 0.000000 -20.894020 -16.411463 -19.146254 0.233675 3.111096 8.588265 0.038514 -6.727362 -5.614585 0.488375 -4.479440 -12.429900 0.000000 0.000000 0.000000 19.615253 12.646875 -18.934358 -0.113265 -2.170194 5.976198 -1.252530 3.559907 -20.279542 -0.762114 5.574331 -15.554437 -7.205709 -2.559245 -30.036756 -0.005841 -1.634648 -1.536357 3.179290 -1.486167 14.217419 -0.483544 -1.416716 -5.400393 3.744781 -2.391129 8.710424 1.204305 -1.108883 3.862076 0.000000 0.000000 0.000000 5.448694 1.180981 -20.527561 12.154173 -20.035246 2.154932 21.349355 -1.240908 11.688769 0.000000 0.000000 0.000000 -7.125000 0.000000 0.000000 -4.063235 17.475420 -2.662236 0.000000 0.000000 0.000000 1.075883 7.360526 8.439783 -18.876474 -29.264873 -4.970345 -9.535609 4.034221 53.800481 0.000000 0.000000 0.000000 7.125000 0.000000 0.000000 70.803095 75.011064 -55.592840
16.458325 17.969411 20.561722 177.692396 -2.164685 -153.655389 0.000000 0.000000 0.000000 -20.853352 -16.452039 -19.059027 0.234135 3.114120 8.596669 0.040762 -6.704363 -5.651457 0.433246 -4.219450 -11.695570 0.000000 0.000000 0.000000 19.645526 12.681688 -18.840029 -0.113848 -2.175263 5.990219 -1.250268 3.550850 -20.262173 -0.738544 5.489940 -15.311533 -7.156445 -2.546803 -30.010048 -0.001798 -1.631498 -1.514276 3.159441 -1.480472 14.230840 -0.423123 -1.432175 -5.453012 3.635182 -2.413703 8.830106 1.155930 -1.121711 3.912112 0.000000 0.000000 0.000000 5.422173 1.143833 -20.148568 11.941831 -19.717142 2.082756 21.362037 -1.006002 11.729072 0.000000 0.000000 0.000000 -7.125000 0.000000 0.000000 -4.055637 17.431467 -2.661173 0.000000 0.000000 0.000000 1.087693 7.313787 8.249431 -18.770010 -29.131764 -4.918422 -9.368580 3.934621 53.342065 0.000000 0.000000 0.000000 7.125000 0.000000 0.000000 69.200552 74.829361 -53.904723
16.457762 17.970194 20.560684 177.674907 -2.151601 -153.690698 0.000000 0.000000 0.000000 -20.870390 -16.509153 -18.984442 0.232990 3.106484 8.575379 0.042432 -6.665447 -5.666107 0.372533 -3.916803 -10.843047 0.000000 0.000000 0.000000 19.622671 12.644921 -18.837725 -0.115210 -2.188028 6.025645 -1.244351 3.546001 -20.213088 -0.758080 5.560178 -15.513620 -7.180623 -2.547565 -29.996469 -0.007394 -1.622949 -1.507426 3.170199 -1.477665 14.231856 -0.345906 -1.461157 -5.480832 3.525725 -2.455833 8.935590 1.103519 -1.144327 3.952413 0.000000 0.000000 0.000000 5.410688 1.155630 -19.900884 11.748531 -19.426265 2.018003 21.579911 -0.880023 11.773957 0.000000 0.000000 0.000000 -7.125000 0.000000 0.000000 -3.904870 17.363942 -2.567475 0.000000 0.000000 0.000000 1.111705 7.259490 8.036906 -18.652116 -28.983999 -4.861186 -9.736842 4.442092 53.543817 0.000000 0.000000 0.000000 7.125000 0.000000 0.000000 69.789163 75.020924 -54.662481
16.457967 17.970692 20.560997 177.665396 -2.149718 -153.711773 0.000000 0.000000 0.000000 -20.876876 -16.526631 -18.955065 0.233448 3.109475 8.583673 0.044285 -6.604507 -5.672311 0.363598 -3.872306 -10.717764 0.000000 0.000000 0.000000 19.625513 12.606835 -18.834950 -0.114752 -2.183903 6.014242 -1.240884 3.491520 -20.192692 -0.786540 5.661604 -15.805675 -7.216690 -2.557331 -29.972088 0.000066 -1.625621 -1.507390 3.197470 -1.480697 14.221954 -0.316656 -1.468469 -5.500605 3.493144 -2.467768 8.975741 1.086783 -1.150456 3.969687 0.000000 0.000000 0.000000 5.414668 1.200564 -19.774858 11.585606 -19.180153 1.964087 21.775217 -0.843480 11.789441 0.000000 0.000000 0.000000 -7.125000 0.000000 0.000000 -3.768933 17.329668 -2.480591 0.000000 0.000000 0.000000 1.106617 7.217789 7.853189 -18.527208 -28.826886 -4.800820 -9.984036 4.844005 53.630334 0.000000 0.000000 0.000000 7.125000 0.000000 0.000000 69.996251 75.137920 -54.982994
16.458562 17.971091 20.560955 177.670284 -2.169469 -153.731886 0.000000 0.000000 0.000000 -20.872602 -16.494633 -18.947856 0.234930 3.119210 8.610799 0.046286 -6.504498 -5.660995 0.392387 -4.021625 -11.137668 0.000000 0.000000 0.000000 19.649202 12.604476 -18.771190 -0.112072 -2.158377 5.943609 -1.243918 3.430590 -20.228278 -0.780403 5.639159 -15.741135 -7.249168 -2.576734 -29.953249 0.022788 -1.641304 -1.496937 3.234124 -1.489558 14.228814 -0.355972 -1.443726 -5.526249 3.525128 -2.431370 8.950892 1.106288 -1.131667 3.966447 0.000000 0.000000 0.000000 5.394397 1.222473 -19.550901 11.423020 -18.933556 1.911052 21.690182 -0.670386 11.782455 0.000000 0.000000 0.000000 -7.125000 0.000000 0.000000 -3.828095 17.344783 -2.518375 0.000000 0.000000 0.000000 1.058662 7.194116 7.761496 -18.419765 -28.691310 -4.749083 -9.903179 4.837551 53.358698 0.000000 0.000000 0.000000 7.125000 0.000000 0.000000 69.033686 75.035195 -53.979112
16.458825 17.971530 20.558815 177.661696 -2.188788 -153.747735 0.000000 0.000000 0.000000 -20.895821 -16.437308 -18.932219 0.234559 3.116712 8.603904 0.047357 -6.381637 -5.618077 0.412815 -4.124394 -11.426967 0.000000 0.000000 0.000000 19.645941 12.610229 -18.680830 -0.109375 -2.132098 5.870986 -1.249423 3.455187 -20.270784 -0.730871 5.461783 -15.230474 -7.289294 -2.600165 -29.961952 0.044092 -1.657205 -1.481109 3.272376 -1.499662 14.254295 -0.427536 -1.405811 -5.545003 3.551191 -2.371955 8.912705 1.130826 -1.102518 3.956946 0.000000 0.000000 0.000000 5.328873 1.217782 -19.088333 11.234431 -18.646587 1.850291 21.349812 -0.233523 11.761077 0.000000 0.000000 0.000000 -7.125000 0.000000 0.000000 -4.065171 17.398441 -2.670390 0.000000 0.000000 0.000000 0.998065 7.202835 7.768187 -18.353362 -28.607272 -4.717229 -9.786011 4.716248 53.160066 0.000000 0.000000 0.000000 7.125000 0.000000 0.000000 68.361071 74.935949 -53.249892
16.458372 17.970757 20.556263 177.711893 -2.207248 -153.777260 0.000000 0.000000 0.000000 -20.853381 -16.389761 -18.894426 0.231661 3.097797 8.551084 0.047937 -6.284994 -5.578573 0.417207 -4.145847 -11.487331 0.000000 0.000000 0.000000 19.712705 12.584002 -18.637746 -0.109956 -2.137589 5.885991 -1.247378 3.551751 -20.237653 -0.696586 5.335011 -14.866622 -7.234914 -2.586167 -29.938654 0.058279 -1.662830 -1.497204 3.257289 -1.498373 14.225775 -0.470802 -1.373183 -5.506414 3.551158 -2.322076 8.890221 1.141159 -1.079656 3.940859 0.000000 0.000000 0.000000 5.295079 1.313673 -18.686522 11.071843 -18.398265 1.798506 21.187170 0.108909 11.727224 0.000000 0.000000 0.000000 -7.125000 0.000000 0.000000 -4.177786 17.449073 -2.740148 0.000000 0.000000 0.000000 0.984270 7.276047 7.746455 -18.308125 -28.549947 -4.695580 -9.732246 4.742464 53.306908 0.000000 0.000000 0.000000 7.125000 0.000000 0.000000 68.916364 74.956539 -53.783958
16.456296 17.970065 20.555657 177.710164 -2.144898 -153.716726 0.000000 0.000000 0.000000 -20.861164 -16.461969 -18.928844 0.229413 3.083182 8.510353 0.053385 -6.152165 -5.629941 0.459408 -4.347340 -12.056006 0.000000 0.000000 0.000000 19.683649 12.540331 -18.808452 -0.114107 -2.177888 5.997547 -1.240546 3.618944 -20.168903 -0.756256 5.553712 -15.495054 -7.204388 -2.550019 -30.038276 0.023948 -1.621235 -1.513462 3.216645 -1.480126 14.244800 -0.472445 -1.366438 -5.487216 3.586095 -2.318444 8.901896 1.153438 -1.077321 3.941810 0.000000 0.000000 0.000000 5.341691 1.502626 -18.675539 11.020735 -18.320003 1.782422 21.275723 0.049153 11.730856 0.000000 0.000000 0.000000 -7.125000 0.000000 0.000000 -4.116041 17.437313 -2.700455 0.000000 0.000000 0.000000 1.021023 7.275182 7.611378 -18.225971 -28.445482 -4.656406 -9.661767 4.898902 53.931881 0.000000 0.000000 0.000000 7.125000 0.000000 0.000000 71.230587 75.091531 -56.080280
16.456022 17.969922 20.557244 177.779684 -2.168048 -153.674983 0.000000 0.000000 0.000000 -20.745472 -16.533239 -18.975477 0.231001 3.093388 8.538915 0.052804 -6.221812 -5.653278 0.409297 -4.104418 -11.370910 0.000000 0.000000 0.000000 19.756457 12.645111 -18.873692 -0.116301 -2.199004 6.055861 -1.244520 3.461033 -20.228639 -0.819057 5.773745 -16.129593 -7.126256 -2.528122 -30.075887 0.024693 -1.622468 -1.539037 3.173651 -1.476991 14.231175 -0.483327 -1.360946 -5.434272 3.632385 -2.318570 8.920225 1.171121 -1.077491 3.939003 0.000000 0.000000 0.000000 5.366066 1.703011 -18.657118 11.008227 -18.300855 1.778473 21.235399 0.008814 11.659480 0.000000 0.000000 0.000000 -7.125000 0.000000 0.000000 -4.141910 17.516689 -2.710324 0.000000 0.000000 0.000000 1.040708 7.273926 7.511612 -18.145384 -28.342818 -4.618093 -9.849277 5.230804 54.618708 0.000000 0.000000 0.000000 7.125000 0.000000 0.000000 73.746347 75.307559 -58.691906
16.456907 17.971131 20.559384 177.765965 -2.195209 -153.652693 0.000000 0.000000 0.000000 -20.741636 -16.544752 -19.025069 0.233314 3.108907 8.582101 0.045699 -6.470404 -5.630158 0.346755 -3.778661 -10.455328 0.000000 0.000000 0.000000 19.733353 12.760803 -18.880045 -0.117707 -2.211832 6.091382 -1.251112 3.271700 -20.316957 -0.840989 5.849728 -16.348981 -7.151843 -2.570933 -30.068996 0.045491 -1.676367 -1.556388 3.188516 -1.503352 14.214722 -0.545504 -1.354677 -5.382401 3.649741 -2.306263 8.913341 1.188784 -1.073649 3.927383 0.000000 0.000000 0.000000 5.311554 1.827443 -18.387437 10.919755 -18.165136 1.750854 21.355336 0.152003 11.615374 0.000000 0.000000 0.000000 -7.125000 0.000000 0.000000 -4.056518 17.552991 -2.651010 0.000000 0.000000 0.000000 0.993380 7.284223 7.547352 -18.092813 -28.275774 -4.593148 -10.064583 5.543403 55.149284 0.000000 0.000000 0.000000 7.125000 0.000000 0.000000 75.716969 75.481531 -60.764707
